<?xml version="1.0" encoding="utf-8"?>
<!-- Generator: Adobe Illustrator 19.2.1, SVG Export Plug-In . SVG Version: 6.00 Build 0)  -->
<svg version="1.1" id="Layer_1" xmlns="http://www.w3.org/2000/svg" xmlns:xlink="http://www.w3.org/1999/xlink" x="0px" y="0px"
	 viewBox="0 0 147 147" style="enable-background:new 0 0 147 147;" xml:space="preserve">
<style type="text/css">
	.st0{fill:none;stroke:#2767AB;stroke-linejoin:round;}
	.st1{fill:none;stroke:#2767AB;stroke-linejoin:round;enable-background:new    ;}
	.st2{fill:none;stroke:#2767AB;stroke-linecap:round;stroke-linejoin:round;}
</style>
<g>
	<path id="Rectangle_13_copy_3" class="st0" d="M11.7,73.5l61.8-61.8l61.8,61.8l-61.8,61.8L11.7,73.5z"/>
	<path id="Rectangle_13_copy_3-2" class="st0" d="M1,73.5L73.5,1L146,73.5L73.5,146L1,73.5z"/>
</g>
<path class="st1" d="M0,0"/>
<circle class="st2" cx="73.5" cy="73.5" r="2.2"/>
<g>
	<polygon class="st2" points="105.8,73.5 82,78.4 79.1,79.1 78.4,82 73.5,105.8 68.6,82 67.9,79.1 65,78.4 41.2,73.5 65,68.6 
		67.9,67.9 68.6,65 73.5,41.2 78.4,65 79.1,67.9 82,68.6 	"/>
</g>
<g>
	<polyline class="st2" points="63.2,68.9 58.1,58.1 68.9,63.2 	"/>
	<polyline class="st2" points="83.8,78.1 88.9,88.9 78.1,83.8 	"/>
</g>
<g>
	<polyline class="st2" points="78.1,63.2 88.9,58.1 83.8,68.9 	"/>
	<polyline class="st2" points="68.9,83.8 58.1,88.9 63.2,78.1 	"/>
</g>
</svg>
