<?xml version="1.0" encoding="utf-8"?>
<!-- Generator: Adobe Illustrator 19.2.1, SVG Export Plug-In . SVG Version: 6.00 Build 0)  -->
<svg version="1.1" id="Layer_1" xmlns="http://www.w3.org/2000/svg" xmlns:xlink="http://www.w3.org/1999/xlink" x="0px" y="0px"
	 viewBox="0 0 147 147" style="enable-background:new 0 0 147 147;" xml:space="preserve">
<style type="text/css">
	.st0{fill:none;stroke:#2767AB;stroke-linejoin:round;}
	.st1{fill:none;stroke:#2767AB;stroke-linejoin:round;enable-background:new    ;}
	.st2{fill:none;stroke:#2767AB;stroke-linecap:round;stroke-linejoin:round;}
</style>
<g>
	<path id="Rectangle_13_copy_3" class="st0" d="M11.7,73.5l61.8-61.8l61.8,61.8l-61.8,61.8L11.7,73.5z"/>
	<path id="Rectangle_13_copy_3-2" class="st0" d="M1,73.5L73.5,1L146,73.5L73.5,146L1,73.5z"/>
</g>
<path class="st1" d="M0,0"/>
<g>
	<path class="st2" d="M90.4,56.1v-7.5H73.5H56.6v7.5c0,6.5,7.1,12.8,10.8,15.7c1.1,0.8,1.1,2.4,0,3.3c-3.7,2.9-10.8,8.8-10.8,15.7
		v7.5h16.9h16.9v-7.5c0-6.9-7.1-12.8-10.8-15.7c-1.1-0.8-1.1-2.4,0-3.3C83.3,68.9,90.4,62.6,90.4,56.1z"/>
	<line class="st2" x1="95.4" y1="48.6" x2="51.6" y2="48.6"/>
	<line class="st2" x1="95.4" y1="98.3" x2="51.6" y2="98.3"/>
	<path class="st2" d="M73.5,83.3c-2,1-7.4,5.3-8.3,10.7c3.1,0,8.3,0,8.3,0s5.2,0,8.3,0C80.9,88.6,75.5,84.3,73.5,83.3z"/>
	<path class="st2" d="M73.5,60.9c0,0-5.2,0-8.3,0c0,3.1,3.5,7.1,8.3,8.2c4.8-1.1,8.3-5.2,8.3-8.2C78.7,60.9,73.5,60.9,73.5,60.9z"/>
</g>
</svg>
