<?xml version="1.0" encoding="utf-8"?>
<!-- Generator: Adobe Illustrator 19.2.1, SVG Export Plug-In . SVG Version: 6.00 Build 0)  -->
<svg version="1.1" id="Layer_1" xmlns="http://www.w3.org/2000/svg" xmlns:xlink="http://www.w3.org/1999/xlink" x="0px" y="0px"
	 viewBox="0 0 147 147" style="enable-background:new 0 0 147 147;" xml:space="preserve">
<style type="text/css">
	.st0{fill:none;stroke:#2767AB;stroke-linejoin:round;}
	.st1{fill:none;stroke:#2767AB;stroke-linejoin:round;enable-background:new    ;}
	.st2{fill:none;stroke:#2767AB;stroke-linecap:round;stroke-linejoin:round;}
</style>
<g>
	<path id="Rectangle_13_copy_3" class="st0" d="M11.7,73.5l61.8-61.8l61.8,61.8l-61.8,61.8L11.7,73.5z"/>
	<path id="Rectangle_13_copy_3-2" class="st0" d="M1,73.5L73.5,1L146,73.5L73.5,146L1,73.5z"/>
</g>
<path class="st1" d="M0,0"/>
<g>
	<circle class="st2" cx="73.5" cy="70.9" r="5"/>
	<line class="st2" x1="73.5" y1="75.8" x2="73.5" y2="90.5"/>
	<path class="st2" d="M92.5,70.9c0-10.5-8.5-19-19-19s-19,8.5-19,19c0,6.5,3.4,12.3,8.4,15.7c0,0,0.1,0,0.1,0.1v12.5
		c0,1.3,0.9,2.4,2.2,2.4H82c1.3,0,2.2-1.1,2.2-2.4V86.7c0,0,0.1,0,0.1-0.1C89.2,83.2,92.5,77.4,92.5,70.9z"/>
	<path class="st2" d="M66.6,101.5L66.6,101.5c0,3.8,3.1,6.9,6.9,6.9s6.9-3.1,6.9-6.9l0,0H66.6z"/>
	<line class="st2" x1="84.1" y1="96" x2="62.9" y2="96"/>
	<line class="st2" x1="84.1" y1="90.5" x2="62.9" y2="90.5"/>
	<g>
		<line class="st2" x1="73.5" y1="40.6" x2="73.5" y2="46.6"/>
		<line class="st2" x1="89.5" y1="45.2" x2="86.3" y2="50.3"/>
		<line class="st2" x1="100.6" y1="57.6" x2="95.3" y2="60.2"/>
		<line class="st2" x1="103.6" y1="73.9" x2="97.7" y2="73.4"/>
		<line class="st2" x1="57.5" y1="45.2" x2="60.7" y2="50.3"/>
		<line class="st2" x1="46.4" y1="57.6" x2="51.7" y2="60.2"/>
		<line class="st2" x1="43.4" y1="73.9" x2="49.3" y2="73.4"/>
	</g>
</g>
</svg>
